<?xml version="1.0" encoding="UTF-8" standalone="yes"?><svg xmlns="http://www.w3.org/2000/svg" xmlns:xlink="http://www.w3.org/1999/xlink" height="536px" style="width:724px;height:536px;" version="1.1" viewBox="0 0 724 536" width="724px"><defs><filter height="300%" id="f1" width="300%" x="-1" y="-1"><feGaussianBlur result="blurOut" stdDeviation="2.0"/><feColorMatrix in="blurOut" result="blurOut2" type="matrix" values="0 0 0 0 0 0 0 0 0 0 0 0 0 0 0 0 0 0 .4 0"/><feOffset dx="4.0" dy="4.0" in="blurOut2" result="blurOut3"/><feBlend in="SourceGraphic" in2="blurOut3" mode="normal"/></filter></defs><g><text fill="#000000" font-family="sans-serif" font-size="14" font-weight="bold" lengthAdjust="spacingAndGlyphs" textLength="231" x="250.75" y="22.9951">Example age verification flow</text><line style="stroke: #A80036; stroke-width: 1.0; stroke-dasharray: 5.0,5.0;" x1="25" x2="25" y1="116.5938" y2="452.0547"/><line style="stroke: #A80036; stroke-width: 1.0; stroke-dasharray: 5.0,5.0;" x1="216" x2="216" y1="116.5938" y2="452.0547"/><line style="stroke: #A80036; stroke-width: 1.0; stroke-dasharray: 5.0,5.0;" x1="368" x2="368" y1="116.5938" y2="452.0547"/><line style="stroke: #A80036; stroke-width: 1.0; stroke-dasharray: 5.0,5.0;" x1="543" x2="543" y1="116.5938" y2="452.0547"/><text fill="#000000" font-family="sans-serif" font-size="14" lengthAdjust="spacingAndGlyphs" textLength="29" x="8" y="113.292">Jane</text><ellipse cx="25.5" cy="43.2969" fill="#FEFECE" filter="url(#f1)" rx="8" ry="8" style="stroke: #A80036; stroke-width: 2.0;"/><path d="M25.5,51.2969 L25.5,78.2969 M12.5,59.2969 L38.5,59.2969 M25.5,78.2969 L12.5,93.2969 M25.5,78.2969 L38.5,93.2969 " fill="#FEFECE" filter="url(#f1)" style="stroke: #A80036; stroke-width: 2.0;"/><text fill="#000000" font-family="sans-serif" font-size="14" lengthAdjust="spacingAndGlyphs" textLength="29" x="8" y="464.0498">Jane</text><ellipse cx="25.5" cy="477.3516" fill="#FEFECE" filter="url(#f1)" rx="8" ry="8" style="stroke: #A80036; stroke-width: 2.0;"/><path d="M25.5,485.3516 L25.5,512.3516 M12.5,493.3516 L38.5,493.3516 M25.5,512.3516 L12.5,527.3516 M25.5,512.3516 L38.5,527.3516 " fill="#FEFECE" filter="url(#f1)" style="stroke: #A80036; stroke-width: 2.0;"/><rect fill="#FEFECE" filter="url(#f1)" height="30.2969" style="stroke: #A80036; stroke-width: 1.5;" width="89" x="170" y="81.2969"/><text fill="#000000" font-family="sans-serif" font-size="14" lengthAdjust="spacingAndGlyphs" textLength="75" x="177" y="101.292">Claim Vault</text><rect fill="#FEFECE" filter="url(#f1)" height="30.2969" style="stroke: #A80036; stroke-width: 1.5;" width="89" x="170" y="451.0547"/><text fill="#000000" font-family="sans-serif" font-size="14" lengthAdjust="spacingAndGlyphs" textLength="75" x="177" y="471.0498">Claim Vault</text><rect fill="#FEFECE" filter="url(#f1)" height="30.2969" style="stroke: #A80036; stroke-width: 1.5;" width="91" x="321" y="81.2969"/><text fill="#000000" font-family="sans-serif" font-size="14" lengthAdjust="spacingAndGlyphs" textLength="77" x="328" y="101.292">User Agent</text><rect fill="#FEFECE" filter="url(#f1)" height="30.2969" style="stroke: #A80036; stroke-width: 1.5;" width="91" x="321" y="451.0547"/><text fill="#000000" font-family="sans-serif" font-size="14" lengthAdjust="spacingAndGlyphs" textLength="77" x="328" y="471.0498">User Agent</text><rect fill="#FEFECE" filter="url(#f1)" height="30.2969" style="stroke: #A80036; stroke-width: 1.5;" width="149" x="467" y="81.2969"/><text fill="#000000" font-family="sans-serif" font-size="14" lengthAdjust="spacingAndGlyphs" textLength="135" x="474" y="101.292">Wines Of The World</text><rect fill="#FEFECE" filter="url(#f1)" height="30.2969" style="stroke: #A80036; stroke-width: 1.5;" width="149" x="467" y="451.0547"/><text fill="#000000" font-family="sans-serif" font-size="14" lengthAdjust="spacingAndGlyphs" textLength="135" x="474" y="471.0498">Wines Of The World</text><polygon fill="#A80036" points="356.5,143.5938,366.5,147.5938,356.5,151.5938,360.5,147.5938" style="stroke: #A80036; stroke-width: 1.0;"/><line style="stroke: #A80036; stroke-width: 1.0;" x1="25.5" x2="362.5" y1="147.5938" y2="147.5938"/><text fill="#000000" font-family="sans-serif" font-size="13" font-weight="bold" lengthAdjust="spacingAndGlyphs" textLength="9" x="32.5" y="142.6606">1</text><text fill="#000000" font-family="sans-serif" font-size="13" lengthAdjust="spacingAndGlyphs" textLength="130" x="45.5" y="142.6606">Navigate to web site</text><polygon fill="#A80036" points="531.5,192.8594,541.5,196.8594,531.5,200.8594,535.5,196.8594" style="stroke: #A80036; stroke-width: 1.0;"/><line style="stroke: #A80036; stroke-width: 1.0;" x1="368.5" x2="537.5" y1="196.8594" y2="196.8594"/><text fill="#000000" font-family="sans-serif" font-size="13" font-weight="bold" lengthAdjust="spacingAndGlyphs" textLength="9" x="375.5" y="191.9263">2</text><text fill="#000000" font-family="sans-serif" font-size="13" lengthAdjust="spacingAndGlyphs" textLength="138" x="388.5" y="191.9263">Request landing page</text><polygon fill="#FBFB77" filter="url(#f1)" points="548,160.7266,548,215.7266,715,215.7266,715,170.7266,705,160.7266,548,160.7266" style="stroke: #A80036; stroke-width: 1.0;"/><line style="stroke: #A80036; stroke-width: 1.0;" x1="705" x2="705" y1="160.7266" y2="170.7266"/><line style="stroke: #A80036; stroke-width: 1.0;" x1="715" x2="705" y1="170.7266" y2="170.7266"/><text fill="#000000" font-family="sans-serif" font-size="13" lengthAdjust="spacingAndGlyphs" textLength="146" x="554" y="177.7935">Merchant requires that</text><text fill="#000000" font-family="sans-serif" font-size="13" lengthAdjust="spacingAndGlyphs" textLength="128" x="554" y="192.9263">web site users be at</text><text fill="#000000" font-family="sans-serif" font-size="13" lengthAdjust="spacingAndGlyphs" textLength="134" x="554" y="208.0591">least 21 years of age</text><polygon fill="#A80036" points="379.5,242.125,369.5,246.125,379.5,250.125,375.5,246.125" style="stroke: #A80036; stroke-width: 1.0;"/><line style="stroke: #A80036; stroke-width: 1.0;" x1="373.5" x2="542.5" y1="246.125" y2="246.125"/><text fill="#000000" font-family="sans-serif" font-size="13" font-weight="bold" lengthAdjust="spacingAndGlyphs" textLength="9" x="385.5" y="241.1919">3</text><text fill="#000000" font-family="sans-serif" font-size="13" lengthAdjust="spacingAndGlyphs" textLength="133" x="398.5" y="241.1919">Request proof of age</text><polygon fill="#A80036" points="227.5,271.2578,217.5,275.2578,227.5,279.2578,223.5,275.2578" style="stroke: #A80036; stroke-width: 1.0;"/><line style="stroke: #A80036; stroke-width: 1.0;" x1="221.5" x2="367.5" y1="275.2578" y2="275.2578"/><text fill="#000000" font-family="sans-serif" font-size="13" font-weight="bold" lengthAdjust="spacingAndGlyphs" textLength="9" x="233.5" y="270.3247">4</text><text fill="#000000" font-family="sans-serif" font-size="13" lengthAdjust="spacingAndGlyphs" textLength="115" x="246.5" y="270.3247">Need proof of age</text><polygon fill="#A80036" points="36.5,300.3906,26.5,304.3906,36.5,308.3906,32.5,304.3906" style="stroke: #A80036; stroke-width: 1.0;"/><line style="stroke: #A80036; stroke-width: 1.0;" x1="30.5" x2="215.5" y1="304.3906" y2="304.3906"/><text fill="#000000" font-family="sans-serif" font-size="13" font-weight="bold" lengthAdjust="spacingAndGlyphs" textLength="9" x="42.5" y="299.4575">5</text><text fill="#000000" font-family="sans-serif" font-size="13" lengthAdjust="spacingAndGlyphs" textLength="154" x="55.5" y="299.4575">Displays relevant claims</text><polygon fill="#A80036" points="204.5,329.5234,214.5,333.5234,204.5,337.5234,208.5,333.5234" style="stroke: #A80036; stroke-width: 1.0;"/><line style="stroke: #A80036; stroke-width: 1.0;" x1="25.5" x2="210.5" y1="333.5234" y2="333.5234"/><text fill="#000000" font-family="sans-serif" font-size="13" font-weight="bold" lengthAdjust="spacingAndGlyphs" textLength="9" x="32.5" y="328.5903">6</text><text fill="#000000" font-family="sans-serif" font-size="13" lengthAdjust="spacingAndGlyphs" textLength="82" x="45.5" y="328.5903">Picks a claim</text><polygon fill="#A80036" points="531.5,358.6563,541.5,362.6563,531.5,366.6563,535.5,362.6563" style="stroke: #A80036; stroke-width: 1.0;"/><line style="stroke: #A80036; stroke-width: 1.0;" x1="216.5" x2="537.5" y1="362.6563" y2="362.6563"/><text fill="#000000" font-family="sans-serif" font-size="13" font-weight="bold" lengthAdjust="spacingAndGlyphs" textLength="9" x="223.5" y="357.7231">7</text><text fill="#000000" font-family="sans-serif" font-size="13" lengthAdjust="spacingAndGlyphs" textLength="190" x="236.5" y="357.7231">Use this claim as proof of age</text><line style="stroke: #A80036; stroke-width: 1.0;" x1="543.5" x2="585.5" y1="391.9219" y2="391.9219"/><line style="stroke: #A80036; stroke-width: 1.0;" x1="585.5" x2="585.5" y1="391.9219" y2="404.9219"/><line style="stroke: #A80036; stroke-width: 1.0;" x1="544.5" x2="585.5" y1="404.9219" y2="404.9219"/><polygon fill="#A80036" points="554.5,400.9219,544.5,404.9219,554.5,408.9219,550.5,404.9219" style="stroke: #A80036; stroke-width: 1.0;"/><text fill="#000000" font-family="sans-serif" font-size="13" font-weight="bold" lengthAdjust="spacingAndGlyphs" textLength="9" x="550.5" y="386.856">8</text><text fill="#000000" font-family="sans-serif" font-size="13" lengthAdjust="spacingAndGlyphs" textLength="36" x="563.5" y="386.856">Verify</text><polygon fill="#A80036" points="379.5,429.9219,369.5,433.9219,379.5,437.9219,375.5,433.9219" style="stroke: #A80036; stroke-width: 1.0;"/><line style="stroke: #A80036; stroke-width: 1.0;" x1="373.5" x2="542.5" y1="433.9219" y2="433.9219"/><text fill="#000000" font-family="sans-serif" font-size="13" font-weight="bold" lengthAdjust="spacingAndGlyphs" textLength="9" x="385.5" y="428.9888">9</text><text fill="#000000" font-family="sans-serif" font-size="13" lengthAdjust="spacingAndGlyphs" textLength="125" x="398.5" y="428.9888">Redirect to web site</text></g></svg>