<?xml version="1.0" encoding="UTF-8" standalone="yes"?><svg xmlns="http://www.w3.org/2000/svg" xmlns:xlink="http://www.w3.org/1999/xlink" height="520px" style="width:734px;height:520px;" version="1.1" viewBox="0 0 734 520" width="734px"><defs/><g><text fill="#000000" font-family="Lucida Sans" font-size="14" font-weight="bold" lengthAdjust="spacingAndGlyphs" textLength="214" x="266.25" y="23.3369">Example age verification flow</text><line style="stroke: #A80036; stroke-width: 1.0; stroke-dasharray: 5.0,5.0;" x1="25" x2="25" y1="112.5801" y2="443.9712"/><line style="stroke: #A80036; stroke-width: 1.0; stroke-dasharray: 5.0,5.0;" x1="243.5" x2="243.5" y1="112.5801" y2="443.9712"/><line style="stroke: #A80036; stroke-width: 1.0; stroke-dasharray: 5.0,5.0;" x1="393.5" x2="393.5" y1="112.5801" y2="443.9712"/><line style="stroke: #A80036; stroke-width: 1.0; stroke-dasharray: 5.0,5.0;" x1="565.5" x2="565.5" y1="112.5801" y2="443.9712"/><text fill="#000000" font-family="Lucida Sans" font-size="14" lengthAdjust="spacingAndGlyphs" textLength="29" x="8" y="109.5928">Jane</text><ellipse cx="25.5" cy="43.29" fill="#FEFECE" rx="8" ry="8" style="stroke: #A80036; stroke-width: 2.0;"/><path d="M25.5,51.29 L25.5,78.29 M12.5,59.29 L38.5,59.29 M25.5,78.29 L12.5,93.29 M25.5,78.29 L38.5,93.29 " fill="#FEFECE" style="stroke: #A80036; stroke-width: 2.0;"/><text fill="#000000" font-family="Lucida Sans" font-size="14" lengthAdjust="spacingAndGlyphs" textLength="29" x="8" y="456.2739">Jane</text><ellipse cx="25.5" cy="469.2612" fill="#FEFECE" rx="8" ry="8" style="stroke: #A80036; stroke-width: 2.0;"/><path d="M25.5,477.2612 L25.5,504.2612 M12.5,485.2612 L38.5,485.2612 M25.5,504.2612 L12.5,519.2612 M25.5,504.2612 L38.5,519.2612 " fill="#FEFECE" style="stroke: #A80036; stroke-width: 2.0;"/><rect fill="#FEFECE" height="30.29" style="stroke: #A80036; stroke-width: 1.5;" width="142" x="172.5" y="81.29"/><text fill="#000000" font-family="Lucida Sans" font-size="14" lengthAdjust="spacingAndGlyphs" textLength="128" x="179.5" y="101.5928">Credential Curator</text><rect fill="#FEFECE" height="30.29" style="stroke: #A80036; stroke-width: 1.5;" width="142" x="172.5" y="442.9712"/><text fill="#000000" font-family="Lucida Sans" font-size="14" lengthAdjust="spacingAndGlyphs" textLength="128" x="179.5" y="463.2739">Credential Curator</text><rect fill="#FEFECE" height="30.29" style="stroke: #A80036; stroke-width: 1.5;" width="90" x="348.5" y="81.29"/><text fill="#000000" font-family="Lucida Sans" font-size="14" lengthAdjust="spacingAndGlyphs" textLength="76" x="355.5" y="101.5928">User Agent</text><rect fill="#FEFECE" height="30.29" style="stroke: #A80036; stroke-width: 1.5;" width="90" x="348.5" y="442.9712"/><text fill="#000000" font-family="Lucida Sans" font-size="14" lengthAdjust="spacingAndGlyphs" textLength="76" x="355.5" y="463.2739">User Agent</text><rect fill="#FEFECE" height="30.29" style="stroke: #A80036; stroke-width: 1.5;" width="148" x="491.5" y="81.29"/><text fill="#000000" font-family="Lucida Sans" font-size="14" lengthAdjust="spacingAndGlyphs" textLength="134" x="498.5" y="101.5928">Wines Of The World</text><rect fill="#FEFECE" height="30.29" style="stroke: #A80036; stroke-width: 1.5;" width="148" x="491.5" y="442.9712"/><text fill="#000000" font-family="Lucida Sans" font-size="14" lengthAdjust="spacingAndGlyphs" textLength="134" x="498.5" y="463.2739">Wines Of The World</text><polygon fill="#A80036" points="381.5,139.5801,391.5,143.5801,381.5,147.5801,385.5,143.5801" style="stroke: #A80036; stroke-width: 1.0;"/><line style="stroke: #A80036; stroke-width: 1.0;" x1="25.5" x2="387.5" y1="143.5801" y2="143.5801"/><text fill="#000000" font-family="Lucida Sans" font-size="13" font-weight="bold" lengthAdjust="spacingAndGlyphs" textLength="9" x="32.5" y="138.9644">1</text><text fill="#000000" font-family="Lucida Sans" font-size="13" lengthAdjust="spacingAndGlyphs" textLength="128" x="45.5" y="138.9326">Navigate to web site</text><polygon fill="#A80036" points="553.5,186.833,563.5,190.833,553.5,194.833,557.5,190.833" style="stroke: #A80036; stroke-width: 1.0;"/><line style="stroke: #A80036; stroke-width: 1.0;" x1="393.5" x2="559.5" y1="190.833" y2="190.833"/><text fill="#000000" font-family="Lucida Sans" font-size="13" font-weight="bold" lengthAdjust="spacingAndGlyphs" textLength="9" x="400.5" y="186.2173">2</text><text fill="#000000" font-family="Lucida Sans" font-size="13" lengthAdjust="spacingAndGlyphs" textLength="135" x="413.5" y="186.1855">Request landing page</text><polygon fill="#FBFB77" points="570,156.7065,570,211.7065,733,211.7065,733,166.7065,723,156.7065,570,156.7065" style="stroke: #A80036; stroke-width: 1.0;"/><line style="stroke: #A80036; stroke-width: 1.0;" x1="723" x2="723" y1="156.7065" y2="166.7065"/><line style="stroke: #A80036; stroke-width: 1.0;" x1="733" x2="723" y1="166.7065" y2="166.7065"/><text fill="#000000" font-family="Lucida Sans" font-size="13" lengthAdjust="spacingAndGlyphs" textLength="142" x="576" y="174.0591">Merchant requires that</text><text fill="#000000" font-family="Lucida Sans" font-size="13" lengthAdjust="spacingAndGlyphs" textLength="125" x="576" y="189.1855">web site users be at</text><text fill="#000000" font-family="Lucida Sans" font-size="13" lengthAdjust="spacingAndGlyphs" textLength="130" x="576" y="204.312">least 21 years of age</text><polygon fill="#A80036" points="404.5,234.0859,394.5,238.0859,404.5,242.0859,400.5,238.0859" style="stroke: #A80036; stroke-width: 1.0;"/><line style="stroke: #A80036; stroke-width: 1.0;" x1="398.5" x2="564.5" y1="238.0859" y2="238.0859"/><text fill="#000000" font-family="Lucida Sans" font-size="13" font-weight="bold" lengthAdjust="spacingAndGlyphs" textLength="9" x="410.5" y="233.4702">3</text><text fill="#000000" font-family="Lucida Sans" font-size="13" lengthAdjust="spacingAndGlyphs" textLength="131" x="423.5" y="233.4385">Request proof of age</text><polygon fill="#A80036" points="254.5,263.2124,244.5,267.2124,254.5,271.2124,250.5,267.2124" style="stroke: #A80036; stroke-width: 1.0;"/><line style="stroke: #A80036; stroke-width: 1.0;" x1="248.5" x2="392.5" y1="267.2124" y2="267.2124"/><text fill="#000000" font-family="Lucida Sans" font-size="13" font-weight="bold" lengthAdjust="spacingAndGlyphs" textLength="9" x="260.5" y="262.5967">4</text><text fill="#000000" font-family="Lucida Sans" font-size="13" lengthAdjust="spacingAndGlyphs" textLength="113" x="273.5" y="262.5649">Need proof of age</text><polygon fill="#A80036" points="36.5,292.3389,26.5,296.3389,36.5,300.3389,32.5,296.3389" style="stroke: #A80036; stroke-width: 1.0;"/><line style="stroke: #A80036; stroke-width: 1.0;" x1="30.5" x2="242.5" y1="296.3389" y2="296.3389"/><text fill="#000000" font-family="Lucida Sans" font-size="13" font-weight="bold" lengthAdjust="spacingAndGlyphs" textLength="9" x="42.5" y="291.7231">5</text><text fill="#000000" font-family="Lucida Sans" font-size="13" lengthAdjust="spacingAndGlyphs" textLength="181" x="55.5" y="291.6914">Displays relevant credentials</text><polygon fill="#A80036" points="231.5,321.4653,241.5,325.4653,231.5,329.4653,235.5,325.4653" style="stroke: #A80036; stroke-width: 1.0;"/><line style="stroke: #A80036; stroke-width: 1.0;" x1="25.5" x2="237.5" y1="325.4653" y2="325.4653"/><text fill="#000000" font-family="Lucida Sans" font-size="13" font-weight="bold" lengthAdjust="spacingAndGlyphs" textLength="9" x="32.5" y="320.8496">6</text><text fill="#000000" font-family="Lucida Sans" font-size="13" lengthAdjust="spacingAndGlyphs" textLength="121" x="45.5" y="320.8179">Selects a credential</text><polygon fill="#A80036" points="553.5,350.5918,563.5,354.5918,553.5,358.5918,557.5,354.5918" style="stroke: #A80036; stroke-width: 1.0;"/><line style="stroke: #A80036; stroke-width: 1.0;" x1="243.5" x2="559.5" y1="354.5918" y2="354.5918"/><text fill="#000000" font-family="Lucida Sans" font-size="13" font-weight="bold" lengthAdjust="spacingAndGlyphs" textLength="9" x="250.5" y="349.9761">7</text><text fill="#000000" font-family="Lucida Sans" font-size="13" lengthAdjust="spacingAndGlyphs" textLength="216" x="263.5" y="349.9443">Use this credential as proof of age</text><line style="stroke: #A80036; stroke-width: 1.0;" x1="565.5" x2="607.5" y1="383.8447" y2="383.8447"/><line style="stroke: #A80036; stroke-width: 1.0;" x1="607.5" x2="607.5" y1="383.8447" y2="396.8447"/><line style="stroke: #A80036; stroke-width: 1.0;" x1="566.5" x2="607.5" y1="396.8447" y2="396.8447"/><polygon fill="#A80036" points="576.5,392.8447,566.5,396.8447,576.5,400.8447,572.5,396.8447" style="stroke: #A80036; stroke-width: 1.0;"/><text fill="#000000" font-family="Lucida Sans" font-size="13" font-weight="bold" lengthAdjust="spacingAndGlyphs" textLength="9" x="572.5" y="379.1025">8</text><text fill="#000000" font-family="Lucida Sans" font-size="13" lengthAdjust="spacingAndGlyphs" textLength="37" x="585.5" y="379.0708">Verify</text><polygon fill="#A80036" points="404.5,421.8447,394.5,425.8447,404.5,429.8447,400.5,425.8447" style="stroke: #A80036; stroke-width: 1.0;"/><line style="stroke: #A80036; stroke-width: 1.0;" x1="398.5" x2="564.5" y1="425.8447" y2="425.8447"/><text fill="#000000" font-family="Lucida Sans" font-size="13" font-weight="bold" lengthAdjust="spacingAndGlyphs" textLength="9" x="410.5" y="421.229">9</text><text fill="#000000" font-family="Lucida Sans" font-size="13" lengthAdjust="spacingAndGlyphs" textLength="124" x="423.5" y="421.1973">Redirect to web site</text></g></svg>