<?xml version="1.0" encoding="UTF-8" standalone="yes"?><svg xmlns="http://www.w3.org/2000/svg" xmlns:xlink="http://www.w3.org/1999/xlink" height="587px" style="width:633px;height:587px;" version="1.1" viewBox="0 0 633 587" width="633px"><defs/><g><text fill="#000000" font-family="Lucida Sans" font-size="14" font-weight="bold" lengthAdjust="spacingAndGlyphs" textLength="236" x="203.25" y="23.3369">Example credential creation flow</text><line style="stroke: #A80036; stroke-width: 1.0; stroke-dasharray: 5.0,5.0;" x1="42" x2="42" y1="112.5801" y2="511.4771"/><line style="stroke: #A80036; stroke-width: 1.0; stroke-dasharray: 5.0,5.0;" x1="192.5" x2="192.5" y1="112.5801" y2="511.4771"/><line style="stroke: #A80036; stroke-width: 1.0; stroke-dasharray: 5.0,5.0;" x1="338" x2="338" y1="112.5801" y2="511.4771"/><line style="stroke: #A80036; stroke-width: 1.0; stroke-dasharray: 5.0,5.0;" x1="491" x2="491" y1="112.5801" y2="511.4771"/><text fill="#000000" font-family="Lucida Sans" font-size="14" lengthAdjust="spacingAndGlyphs" textLength="63" x="8" y="109.5928">Recipient</text><ellipse cx="42.5" cy="43.29" fill="#FEFECE" rx="8" ry="8" style="stroke: #A80036; stroke-width: 2.0;"/><path d="M42.5,51.29 L42.5,78.29 M29.5,59.29 L55.5,59.29 M42.5,78.29 L29.5,93.29 M42.5,78.29 L55.5,93.29 " fill="#FEFECE" style="stroke: #A80036; stroke-width: 2.0;"/><text fill="#000000" font-family="Lucida Sans" font-size="14" lengthAdjust="spacingAndGlyphs" textLength="63" x="8" y="523.7798">Recipient</text><ellipse cx="42.5" cy="536.7671" fill="#FEFECE" rx="8" ry="8" style="stroke: #A80036; stroke-width: 2.0;"/><path d="M42.5,544.7671 L42.5,571.7671 M29.5,552.7671 L55.5,552.7671 M42.5,571.7671 L29.5,586.7671 M42.5,571.7671 L55.5,586.7671 " fill="#FEFECE" style="stroke: #A80036; stroke-width: 2.0;"/><rect fill="#FEFECE" height="30.29" style="stroke: #A80036; stroke-width: 1.5;" width="90" x="147.5" y="81.29"/><text fill="#000000" font-family="Lucida Sans" font-size="14" lengthAdjust="spacingAndGlyphs" textLength="76" x="154.5" y="101.5928">User Agent</text><rect fill="#FEFECE" height="30.29" style="stroke: #A80036; stroke-width: 1.5;" width="90" x="147.5" y="510.4771"/><text fill="#000000" font-family="Lucida Sans" font-size="14" lengthAdjust="spacingAndGlyphs" textLength="76" x="154.5" y="530.7798">User Agent</text><rect fill="#FEFECE" height="30.29" style="stroke: #A80036; stroke-width: 1.5;" width="137" x="270" y="81.29"/><text fill="#000000" font-family="Lucida Sans" font-size="14" lengthAdjust="spacingAndGlyphs" textLength="123" x="277" y="101.5928">Credential Service</text><rect fill="#FEFECE" height="30.29" style="stroke: #A80036; stroke-width: 1.5;" width="137" x="270" y="510.4771"/><text fill="#000000" font-family="Lucida Sans" font-size="14" lengthAdjust="spacingAndGlyphs" textLength="123" x="277" y="530.7798">Credential Service</text><rect fill="#FEFECE" height="30.29" style="stroke: #A80036; stroke-width: 1.5;" width="149" x="417" y="81.29"/><text fill="#000000" font-family="Lucida Sans" font-size="14" lengthAdjust="spacingAndGlyphs" textLength="135" x="424" y="101.5928">Certifying Authority</text><rect fill="#FEFECE" height="30.29" style="stroke: #A80036; stroke-width: 1.5;" width="149" x="417" y="510.4771"/><text fill="#000000" font-family="Lucida Sans" font-size="14" lengthAdjust="spacingAndGlyphs" textLength="135" x="424" y="530.7798">Certifying Authority</text><polygon fill="#A80036" points="180.5,154.5801,190.5,158.5801,180.5,162.5801,184.5,158.5801" style="stroke: #A80036; stroke-width: 1.0;"/><line style="stroke: #A80036; stroke-width: 1.0;" x1="42.5" x2="186.5" y1="158.5801" y2="158.5801"/><text fill="#000000" font-family="Lucida Sans" font-size="13" font-weight="bold" lengthAdjust="spacingAndGlyphs" textLength="9" x="49.5" y="146.5276">1</text><text fill="#000000" font-family="Lucida Sans" font-size="13" lengthAdjust="spacingAndGlyphs" textLength="72" x="62.5" y="138.9326">Navigate to</text><text fill="#000000" font-family="Lucida Sans" font-size="13" lengthAdjust="spacingAndGlyphs" textLength="52" x="62.5" y="154.0591">web site</text><polygon fill="#A80036" points="479.5,198.833,489.5,202.833,479.5,206.833,483.5,202.833" style="stroke: #A80036; stroke-width: 1.0;"/><line style="stroke: #A80036; stroke-width: 1.0;" x1="192.5" x2="485.5" y1="202.833" y2="202.833"/><text fill="#000000" font-family="Lucida Sans" font-size="13" font-weight="bold" lengthAdjust="spacingAndGlyphs" textLength="9" x="199.5" y="190.7805">2</text><text fill="#000000" font-family="Lucida Sans" font-size="13" lengthAdjust="spacingAndGlyphs" textLength="50" x="212.5" y="183.1855">Request</text><text fill="#000000" font-family="Lucida Sans" font-size="13" lengthAdjust="spacingAndGlyphs" textLength="64" x="212.5" y="198.312">Credential</text><line style="stroke: #A80036; stroke-width: 1.0;" x1="491.5" x2="533.5" y1="247.3389" y2="247.3389"/><line style="stroke: #A80036; stroke-width: 1.0;" x1="533.5" x2="533.5" y1="247.3389" y2="260.3389"/><line style="stroke: #A80036; stroke-width: 1.0;" x1="492.5" x2="533.5" y1="260.3389" y2="260.3389"/><polygon fill="#A80036" points="502.5,256.3389,492.5,260.3389,502.5,264.3389,498.5,260.3389" style="stroke: #A80036; stroke-width: 1.0;"/><text fill="#000000" font-family="Lucida Sans" font-size="13" font-weight="bold" lengthAdjust="spacingAndGlyphs" textLength="9" x="498.5" y="235.0334">3</text><text fill="#000000" font-family="Lucida Sans" font-size="13" lengthAdjust="spacingAndGlyphs" textLength="37" x="511.5" y="227.4385">Verify</text><text fill="#000000" font-family="Lucida Sans" font-size="13" lengthAdjust="spacingAndGlyphs" textLength="48" x="511.5" y="242.5649">identity</text><line style="stroke: #A80036; stroke-width: 1.0;" x1="491.5" x2="533.5" y1="289.4653" y2="289.4653"/><line style="stroke: #A80036; stroke-width: 1.0;" x1="533.5" x2="533.5" y1="289.4653" y2="302.4653"/><line style="stroke: #A80036; stroke-width: 1.0;" x1="492.5" x2="533.5" y1="302.4653" y2="302.4653"/><polygon fill="#A80036" points="502.5,298.4653,492.5,302.4653,502.5,306.4653,498.5,302.4653" style="stroke: #A80036; stroke-width: 1.0;"/><text fill="#000000" font-family="Lucida Sans" font-size="13" font-weight="bold" lengthAdjust="spacingAndGlyphs" textLength="9" x="498.5" y="284.7231">4</text><text fill="#000000" font-family="Lucida Sans" font-size="13" lengthAdjust="spacingAndGlyphs" textLength="121" x="511.5" y="284.6914">Generate credential</text><polygon fill="#A80036" points="203.5,342.4653,193.5,346.4653,203.5,350.4653,199.5,346.4653" style="stroke: #A80036; stroke-width: 1.0;"/><line style="stroke: #A80036; stroke-width: 1.0;" x1="197.5" x2="490.5" y1="346.4653" y2="346.4653"/><text fill="#000000" font-family="Lucida Sans" font-size="13" font-weight="bold" lengthAdjust="spacingAndGlyphs" textLength="9" x="209.5" y="334.4128">5</text><text fill="#000000" font-family="Lucida Sans" font-size="13" lengthAdjust="spacingAndGlyphs" textLength="33" x="222.5" y="326.8179">Issue</text><text fill="#000000" font-family="Lucida Sans" font-size="13" lengthAdjust="spacingAndGlyphs" textLength="62" x="222.5" y="341.9443">credential</text><polygon fill="#A80036" points="53.5,371.7183,43.5,375.7183,53.5,379.7183,49.5,375.7183" style="stroke: #A80036; stroke-width: 1.0;"/><line style="stroke: #A80036; stroke-width: 1.0;" x1="47.5" x2="191.5" y1="375.7183" y2="375.7183"/><text fill="#000000" font-family="Lucida Sans" font-size="13" font-weight="bold" lengthAdjust="spacingAndGlyphs" textLength="9" x="59.5" y="371.1025">6</text><text fill="#000000" font-family="Lucida Sans" font-size="13" lengthAdjust="spacingAndGlyphs" textLength="113" x="72.5" y="371.0708">Display credential</text><polygon fill="#A80036" points="180.5,400.8447,190.5,404.8447,180.5,408.8447,184.5,404.8447" style="stroke: #A80036; stroke-width: 1.0;"/><line style="stroke: #A80036; stroke-width: 1.0;" x1="42.5" x2="186.5" y1="404.8447" y2="404.8447"/><text fill="#000000" font-family="Lucida Sans" font-size="13" font-weight="bold" lengthAdjust="spacingAndGlyphs" textLength="9" x="49.5" y="400.229">7</text><text fill="#000000" font-family="Lucida Sans" font-size="13" lengthAdjust="spacingAndGlyphs" textLength="94" x="62.5" y="400.1973">Save credential</text><polygon fill="#A80036" points="326.5,444.9712,336.5,448.9712,326.5,452.9712,330.5,448.9712" style="stroke: #A80036; stroke-width: 1.0;"/><line style="stroke: #A80036; stroke-width: 1.0;" x1="192.5" x2="332.5" y1="448.9712" y2="448.9712"/><text fill="#000000" font-family="Lucida Sans" font-size="13" font-weight="bold" lengthAdjust="spacingAndGlyphs" textLength="9" x="199.5" y="436.9187">8</text><text fill="#000000" font-family="Lucida Sans" font-size="13" lengthAdjust="spacingAndGlyphs" textLength="32" x="212.5" y="429.3237">Store</text><text fill="#000000" font-family="Lucida Sans" font-size="13" lengthAdjust="spacingAndGlyphs" textLength="62" x="212.5" y="444.4502">credential</text><polygon fill="#A80036" points="203.5,489.2241,193.5,493.2241,203.5,497.2241,199.5,493.2241" style="stroke: #A80036; stroke-width: 1.0;"/><line style="stroke: #A80036; stroke-width: 1.0;" x1="197.5" x2="337.5" y1="493.2241" y2="493.2241"/><text fill="#000000" font-family="Lucida Sans" font-size="13" font-weight="bold" lengthAdjust="spacingAndGlyphs" textLength="9" x="209.5" y="481.1716">9</text><text fill="#000000" font-family="Lucida Sans" font-size="13" lengthAdjust="spacingAndGlyphs" textLength="47" x="222.5" y="473.5767">Display</text><text fill="#000000" font-family="Lucida Sans" font-size="13" lengthAdjust="spacingAndGlyphs" textLength="109" x="222.5" y="488.7031">saved credentials</text></g></svg>