<?xml version="1.0" encoding="UTF-8" standalone="yes"?><svg xmlns="http://www.w3.org/2000/svg" xmlns:xlink="http://www.w3.org/1999/xlink" height="587px" style="width:703px;height:587px;" version="1.1" viewBox="0 0 703 587" width="703px"><defs/><g><text fill="#000000" font-family="Lucida Sans" font-size="14" font-weight="bold" lengthAdjust="spacingAndGlyphs" textLength="236" x="239.75" y="23.3369">Example credential creation flow</text><line style="stroke: #A80036; stroke-width: 1.0; stroke-dasharray: 5.0,5.0;" x1="32" x2="32" y1="112.5801" y2="511.4771"/><line style="stroke: #A80036; stroke-width: 1.0; stroke-dasharray: 5.0,5.0;" x1="182" x2="182" y1="112.5801" y2="511.4771"/><line style="stroke: #A80036; stroke-width: 1.0; stroke-dasharray: 5.0,5.0;" x1="328" x2="328" y1="112.5801" y2="511.4771"/><line style="stroke: #A80036; stroke-width: 1.0; stroke-dasharray: 5.0,5.0;" x1="483" x2="483" y1="112.5801" y2="511.4771"/><text fill="#000000" font-family="Lucida Sans" font-size="14" lengthAdjust="spacingAndGlyphs" textLength="42" x="8" y="109.5928">Asako</text><ellipse cx="32" cy="43.29" fill="#FEFECE" rx="8" ry="8" style="stroke: #A80036; stroke-width: 2.0;"/><path d="M32,51.29 L32,78.29 M19,59.29 L45,59.29 M32,78.29 L19,93.29 M32,78.29 L45,93.29 " fill="#FEFECE" style="stroke: #A80036; stroke-width: 2.0;"/><text fill="#000000" font-family="Lucida Sans" font-size="14" lengthAdjust="spacingAndGlyphs" textLength="42" x="8" y="523.7798">Asako</text><ellipse cx="32" cy="536.7671" fill="#FEFECE" rx="8" ry="8" style="stroke: #A80036; stroke-width: 2.0;"/><path d="M32,544.7671 L32,571.7671 M19,552.7671 L45,552.7671 M32,571.7671 L19,586.7671 M32,571.7671 L45,586.7671 " fill="#FEFECE" style="stroke: #A80036; stroke-width: 2.0;"/><rect fill="#FEFECE" height="30.29" style="stroke: #A80036; stroke-width: 1.5;" width="90" x="137" y="81.29"/><text fill="#000000" font-family="Lucida Sans" font-size="14" lengthAdjust="spacingAndGlyphs" textLength="76" x="144" y="101.5928">User Agent</text><rect fill="#FEFECE" height="30.29" style="stroke: #A80036; stroke-width: 1.5;" width="90" x="137" y="510.4771"/><text fill="#000000" font-family="Lucida Sans" font-size="14" lengthAdjust="spacingAndGlyphs" textLength="76" x="144" y="530.7798">User Agent</text><rect fill="#FEFECE" height="30.29" style="stroke: #A80036; stroke-width: 1.5;" width="142" x="257" y="81.29"/><text fill="#000000" font-family="Lucida Sans" font-size="14" lengthAdjust="spacingAndGlyphs" textLength="128" x="264" y="101.5928">Credential Curator</text><rect fill="#FEFECE" height="30.29" style="stroke: #A80036; stroke-width: 1.5;" width="142" x="257" y="510.4771"/><text fill="#000000" font-family="Lucida Sans" font-size="14" lengthAdjust="spacingAndGlyphs" textLength="128" x="264" y="530.7798">Credential Curator</text><rect fill="#FEFECE" height="30.29" style="stroke: #A80036; stroke-width: 1.5;" width="149" x="409" y="81.29"/><text fill="#000000" font-family="Lucida Sans" font-size="14" lengthAdjust="spacingAndGlyphs" textLength="135" x="416" y="101.5928">Certifying Authority</text><rect fill="#FEFECE" height="30.29" style="stroke: #A80036; stroke-width: 1.5;" width="149" x="409" y="510.4771"/><text fill="#000000" font-family="Lucida Sans" font-size="14" lengthAdjust="spacingAndGlyphs" textLength="135" x="416" y="530.7798">Certifying Authority</text><polygon fill="#A80036" points="170,154.5801,180,158.5801,170,162.5801,174,158.5801" style="stroke: #A80036; stroke-width: 1.0;"/><line style="stroke: #A80036; stroke-width: 1.0;" x1="32" x2="176" y1="158.5801" y2="158.5801"/><text fill="#000000" font-family="Lucida Sans" font-size="13" font-weight="bold" lengthAdjust="spacingAndGlyphs" textLength="9" x="39" y="146.5276">1</text><text fill="#000000" font-family="Lucida Sans" font-size="13" lengthAdjust="spacingAndGlyphs" textLength="72" x="52" y="138.9326">Navigate to</text><text fill="#000000" font-family="Lucida Sans" font-size="13" lengthAdjust="spacingAndGlyphs" textLength="52" x="52" y="154.0591">web site</text><polygon fill="#A80036" points="471.5,198.833,481.5,202.833,471.5,206.833,475.5,202.833" style="stroke: #A80036; stroke-width: 1.0;"/><line style="stroke: #A80036; stroke-width: 1.0;" x1="182" x2="477.5" y1="202.833" y2="202.833"/><text fill="#000000" font-family="Lucida Sans" font-size="13" font-weight="bold" lengthAdjust="spacingAndGlyphs" textLength="9" x="189" y="190.7805">2</text><text fill="#000000" font-family="Lucida Sans" font-size="13" lengthAdjust="spacingAndGlyphs" textLength="50" x="202" y="183.1855">Request</text><text fill="#000000" font-family="Lucida Sans" font-size="13" lengthAdjust="spacingAndGlyphs" textLength="64" x="202" y="198.312">Credential</text><line style="stroke: #A80036; stroke-width: 1.0;" x1="483.5" x2="525.5" y1="247.3389" y2="247.3389"/><line style="stroke: #A80036; stroke-width: 1.0;" x1="525.5" x2="525.5" y1="247.3389" y2="260.3389"/><line style="stroke: #A80036; stroke-width: 1.0;" x1="484.5" x2="525.5" y1="260.3389" y2="260.3389"/><polygon fill="#A80036" points="494.5,256.3389,484.5,260.3389,494.5,264.3389,490.5,260.3389" style="stroke: #A80036; stroke-width: 1.0;"/><text fill="#000000" font-family="Lucida Sans" font-size="13" font-weight="bold" lengthAdjust="spacingAndGlyphs" textLength="9" x="490.5" y="235.0334">3</text><text fill="#000000" font-family="Lucida Sans" font-size="13" lengthAdjust="spacingAndGlyphs" textLength="37" x="503.5" y="227.4385">Verify</text><text fill="#000000" font-family="Lucida Sans" font-size="13" lengthAdjust="spacingAndGlyphs" textLength="48" x="503.5" y="242.5649">identity</text><polygon fill="#FBFB77" points="563,219.5859,563,259.5859,702,259.5859,702,229.5859,692,219.5859,563,219.5859" style="stroke: #A80036; stroke-width: 1.0;"/><line style="stroke: #A80036; stroke-width: 1.0;" x1="692" x2="692" y1="219.5859" y2="229.5859"/><line style="stroke: #A80036; stroke-width: 1.0;" x1="702" x2="692" y1="229.5859" y2="229.5859"/><text fill="#000000" font-family="Lucida Sans" font-size="13" lengthAdjust="spacingAndGlyphs" textLength="118" x="569" y="236.9385">Expand on identity</text><text fill="#000000" font-family="Lucida Sans" font-size="13" lengthAdjust="spacingAndGlyphs" textLength="76" x="569" y="252.0649">verification?</text><line style="stroke: #A80036; stroke-width: 1.0;" x1="483.5" x2="525.5" y1="289.4653" y2="289.4653"/><line style="stroke: #A80036; stroke-width: 1.0;" x1="525.5" x2="525.5" y1="289.4653" y2="302.4653"/><line style="stroke: #A80036; stroke-width: 1.0;" x1="484.5" x2="525.5" y1="302.4653" y2="302.4653"/><polygon fill="#A80036" points="494.5,298.4653,484.5,302.4653,494.5,306.4653,490.5,302.4653" style="stroke: #A80036; stroke-width: 1.0;"/><text fill="#000000" font-family="Lucida Sans" font-size="13" font-weight="bold" lengthAdjust="spacingAndGlyphs" textLength="9" x="490.5" y="284.7231">4</text><text fill="#000000" font-family="Lucida Sans" font-size="13" lengthAdjust="spacingAndGlyphs" textLength="121" x="503.5" y="284.6914">Generate credential</text><polygon fill="#A80036" points="193,342.4653,183,346.4653,193,350.4653,189,346.4653" style="stroke: #A80036; stroke-width: 1.0;"/><line style="stroke: #A80036; stroke-width: 1.0;" x1="187" x2="482.5" y1="346.4653" y2="346.4653"/><text fill="#000000" font-family="Lucida Sans" font-size="13" font-weight="bold" lengthAdjust="spacingAndGlyphs" textLength="9" x="199" y="334.4128">5</text><text fill="#000000" font-family="Lucida Sans" font-size="13" lengthAdjust="spacingAndGlyphs" textLength="41" x="212" y="326.8179">Return</text><text fill="#000000" font-family="Lucida Sans" font-size="13" lengthAdjust="spacingAndGlyphs" textLength="62" x="212" y="341.9443">credential</text><polygon fill="#A80036" points="43,371.7183,33,375.7183,43,379.7183,39,375.7183" style="stroke: #A80036; stroke-width: 1.0;"/><line style="stroke: #A80036; stroke-width: 1.0;" x1="37" x2="181" y1="375.7183" y2="375.7183"/><text fill="#000000" font-family="Lucida Sans" font-size="13" font-weight="bold" lengthAdjust="spacingAndGlyphs" textLength="9" x="49" y="371.1025">6</text><text fill="#000000" font-family="Lucida Sans" font-size="13" lengthAdjust="spacingAndGlyphs" textLength="113" x="62" y="371.0708">Display credential</text><polygon fill="#A80036" points="170,400.8447,180,404.8447,170,408.8447,174,404.8447" style="stroke: #A80036; stroke-width: 1.0;"/><line style="stroke: #A80036; stroke-width: 1.0;" x1="32" x2="176" y1="404.8447" y2="404.8447"/><text fill="#000000" font-family="Lucida Sans" font-size="13" font-weight="bold" lengthAdjust="spacingAndGlyphs" textLength="9" x="39" y="400.229">7</text><text fill="#000000" font-family="Lucida Sans" font-size="13" lengthAdjust="spacingAndGlyphs" textLength="94" x="52" y="400.1973">Save credential</text><polygon fill="#A80036" points="316,444.9712,326,448.9712,316,452.9712,320,448.9712" style="stroke: #A80036; stroke-width: 1.0;"/><line style="stroke: #A80036; stroke-width: 1.0;" x1="182" x2="322" y1="448.9712" y2="448.9712"/><text fill="#000000" font-family="Lucida Sans" font-size="13" font-weight="bold" lengthAdjust="spacingAndGlyphs" textLength="9" x="189" y="436.9187">8</text><text fill="#000000" font-family="Lucida Sans" font-size="13" lengthAdjust="spacingAndGlyphs" textLength="32" x="202" y="429.3237">Store</text><text fill="#000000" font-family="Lucida Sans" font-size="13" lengthAdjust="spacingAndGlyphs" textLength="62" x="202" y="444.4502">credential</text><polygon fill="#A80036" points="193,489.2241,183,493.2241,193,497.2241,189,493.2241" style="stroke: #A80036; stroke-width: 1.0;"/><line style="stroke: #A80036; stroke-width: 1.0;" x1="187" x2="327" y1="493.2241" y2="493.2241"/><text fill="#000000" font-family="Lucida Sans" font-size="13" font-weight="bold" lengthAdjust="spacingAndGlyphs" textLength="9" x="199" y="481.1716">9</text><text fill="#000000" font-family="Lucida Sans" font-size="13" lengthAdjust="spacingAndGlyphs" textLength="47" x="212" y="473.5767">Display</text><text fill="#000000" font-family="Lucida Sans" font-size="13" lengthAdjust="spacingAndGlyphs" textLength="109" x="212" y="488.7031">saved credentials</text></g></svg>