<?xml version="1.0" encoding="UTF-8" standalone="yes"?><svg xmlns="http://www.w3.org/2000/svg" xmlns:xlink="http://www.w3.org/1999/xlink" height="521px" style="width:820px;height:521px;" version="1.1" viewBox="0 0 820 521" width="820px"><defs><filter height="300%" id="f1" width="300%" x="-1" y="-1"><feGaussianBlur result="blurOut" stdDeviation="2.0"/><feColorMatrix in="blurOut" result="blurOut2" type="matrix" values="0 0 0 0 0 0 0 0 0 0 0 0 0 0 0 0 0 0 .4 0"/><feOffset dx="4.0" dy="4.0" in="blurOut2" result="blurOut3"/><feBlend in="SourceGraphic" in2="blurOut3" mode="normal"/></filter></defs><g><text fill="#000000" font-family="sans-serif" font-size="14" font-weight="bold" lengthAdjust="spacingAndGlyphs" textLength="258" x="285" y="22.9951">Example credential creation flow</text><line style="stroke: #A80036; stroke-width: 1.0; stroke-dasharray: 5.0,5.0;" x1="32" x2="32" y1="116.5938" y2="436.9219"/><line style="stroke: #A80036; stroke-width: 1.0; stroke-dasharray: 5.0,5.0;" x1="198.5" x2="198.5" y1="116.5938" y2="436.9219"/><line style="stroke: #A80036; stroke-width: 1.0; stroke-dasharray: 5.0,5.0;" x1="397.5" x2="397.5" y1="116.5938" y2="436.9219"/><line style="stroke: #A80036; stroke-width: 1.0; stroke-dasharray: 5.0,5.0;" x1="552.5" x2="552.5" y1="116.5938" y2="436.9219"/><text fill="#000000" font-family="sans-serif" font-size="14" lengthAdjust="spacingAndGlyphs" textLength="42" x="8" y="113.292">Asako</text><ellipse cx="32" cy="43.2969" fill="#FEFECE" filter="url(#f1)" rx="8" ry="8" style="stroke: #A80036; stroke-width: 2.0;"/><path d="M32,51.2969 L32,78.2969 M19,59.2969 L45,59.2969 M32,78.2969 L19,93.2969 M32,78.2969 L45,93.2969 " fill="#FEFECE" filter="url(#f1)" style="stroke: #A80036; stroke-width: 2.0;"/><text fill="#000000" font-family="sans-serif" font-size="14" lengthAdjust="spacingAndGlyphs" textLength="42" x="8" y="448.917">Asako</text><ellipse cx="32" cy="462.2188" fill="#FEFECE" filter="url(#f1)" rx="8" ry="8" style="stroke: #A80036; stroke-width: 2.0;"/><path d="M32,470.2188 L32,497.2188 M19,478.2188 L45,478.2188 M32,497.2188 L19,512.2188 M32,497.2188 L45,512.2188 " fill="#FEFECE" filter="url(#f1)" style="stroke: #A80036; stroke-width: 2.0;"/><rect fill="#FEFECE" filter="url(#f1)" height="30.2969" style="stroke: #A80036; stroke-width: 1.5;" width="91" x="151.5" y="81.2969"/><text fill="#000000" font-family="sans-serif" font-size="14" lengthAdjust="spacingAndGlyphs" textLength="77" x="158.5" y="101.292">User Agent</text><rect fill="#FEFECE" filter="url(#f1)" height="30.2969" style="stroke: #A80036; stroke-width: 1.5;" width="91" x="151.5" y="435.9219"/><text fill="#000000" font-family="sans-serif" font-size="14" lengthAdjust="spacingAndGlyphs" textLength="77" x="158.5" y="455.917">User Agent</text><rect fill="#FEFECE" filter="url(#f1)" height="30.2969" style="stroke: #A80036; stroke-width: 1.5;" width="139" x="326.5" y="81.2969"/><text fill="#000000" font-family="sans-serif" font-size="14" lengthAdjust="spacingAndGlyphs" textLength="125" x="333.5" y="101.292">Credential Curator</text><rect fill="#FEFECE" filter="url(#f1)" height="30.2969" style="stroke: #A80036; stroke-width: 1.5;" width="139" x="326.5" y="435.9219"/><text fill="#000000" font-family="sans-serif" font-size="14" lengthAdjust="spacingAndGlyphs" textLength="125" x="333.5" y="455.917">Credential Curator</text><rect fill="#FEFECE" filter="url(#f1)" height="30.2969" style="stroke: #A80036; stroke-width: 1.5;" width="143" x="479.5" y="81.2969"/><text fill="#000000" font-family="sans-serif" font-size="14" lengthAdjust="spacingAndGlyphs" textLength="129" x="486.5" y="101.292">Certifying Authority</text><rect fill="#FEFECE" filter="url(#f1)" height="30.2969" style="stroke: #A80036; stroke-width: 1.5;" width="143" x="479.5" y="435.9219"/><text fill="#000000" font-family="sans-serif" font-size="14" lengthAdjust="spacingAndGlyphs" textLength="129" x="486.5" y="455.917">Certifying Authority</text><polygon fill="#A80036" points="187,143.5938,197,147.5938,187,151.5938,191,147.5938" style="stroke: #A80036; stroke-width: 1.0;"/><line style="stroke: #A80036; stroke-width: 1.0;" x1="32" x2="193" y1="147.5938" y2="147.5938"/><text fill="#000000" font-family="sans-serif" font-size="13" font-weight="bold" lengthAdjust="spacingAndGlyphs" textLength="9" x="39" y="142.6606">1</text><text fill="#000000" font-family="sans-serif" font-size="13" lengthAdjust="spacingAndGlyphs" textLength="130" x="52" y="142.6606">Navigate to web site</text><polygon fill="#A80036" points="541,172.7266,551,176.7266,541,180.7266,545,176.7266" style="stroke: #A80036; stroke-width: 1.0;"/><line style="stroke: #A80036; stroke-width: 1.0;" x1="199" x2="547" y1="176.7266" y2="176.7266"/><text fill="#000000" font-family="sans-serif" font-size="13" font-weight="bold" lengthAdjust="spacingAndGlyphs" textLength="9" x="206" y="171.7935">2</text><text fill="#000000" font-family="sans-serif" font-size="13" lengthAdjust="spacingAndGlyphs" textLength="121" x="219" y="171.7935">Request Credential</text><line style="stroke: #A80036; stroke-width: 1.0;" x1="553" x2="595" y1="212.0586" y2="212.0586"/><line style="stroke: #A80036; stroke-width: 1.0;" x1="595" x2="595" y1="212.0586" y2="225.0586"/><line style="stroke: #A80036; stroke-width: 1.0;" x1="554" x2="595" y1="225.0586" y2="225.0586"/><polygon fill="#A80036" points="564,221.0586,554,225.0586,564,229.0586,560,225.0586" style="stroke: #A80036; stroke-width: 1.0;"/><text fill="#000000" font-family="sans-serif" font-size="13" font-weight="bold" lengthAdjust="spacingAndGlyphs" textLength="9" x="560" y="206.9927">3</text><text fill="#000000" font-family="sans-serif" font-size="13" lengthAdjust="spacingAndGlyphs" textLength="87" x="573" y="206.9927">Verify identity</text><polygon fill="#FBFB77" filter="url(#f1)" points="672,189.8594,672,229.8594,811,229.8594,811,199.8594,801,189.8594,672,189.8594" style="stroke: #A80036; stroke-width: 1.0;"/><line style="stroke: #A80036; stroke-width: 1.0;" x1="801" x2="801" y1="189.8594" y2="199.8594"/><line style="stroke: #A80036; stroke-width: 1.0;" x1="811" x2="801" y1="199.8594" y2="199.8594"/><text fill="#000000" font-family="sans-serif" font-size="13" lengthAdjust="spacingAndGlyphs" textLength="118" x="678" y="206.9263">Expand on identity</text><text fill="#000000" font-family="sans-serif" font-size="13" lengthAdjust="spacingAndGlyphs" textLength="76" x="678" y="222.0591">verification?</text><line style="stroke: #A80036; stroke-width: 1.0;" x1="553" x2="595" y1="260.2578" y2="260.2578"/><line style="stroke: #A80036; stroke-width: 1.0;" x1="595" x2="595" y1="260.2578" y2="273.2578"/><line style="stroke: #A80036; stroke-width: 1.0;" x1="554" x2="595" y1="273.2578" y2="273.2578"/><polygon fill="#A80036" points="564,269.2578,554,273.2578,564,277.2578,560,273.2578" style="stroke: #A80036; stroke-width: 1.0;"/><text fill="#000000" font-family="sans-serif" font-size="13" font-weight="bold" lengthAdjust="spacingAndGlyphs" textLength="9" x="560" y="255.1919">4</text><text fill="#000000" font-family="sans-serif" font-size="13" lengthAdjust="spacingAndGlyphs" textLength="127" x="573" y="255.1919">Generate credential</text><polygon fill="#A80036" points="210,298.2578,200,302.2578,210,306.2578,206,302.2578" style="stroke: #A80036; stroke-width: 1.0;"/><line style="stroke: #A80036; stroke-width: 1.0;" x1="204" x2="552" y1="302.2578" y2="302.2578"/><text fill="#000000" font-family="sans-serif" font-size="13" font-weight="bold" lengthAdjust="spacingAndGlyphs" textLength="9" x="216" y="297.3247">5</text><text fill="#000000" font-family="sans-serif" font-size="13" lengthAdjust="spacingAndGlyphs" textLength="109" x="229" y="297.3247">Return credential</text><polygon fill="#A80036" points="43,327.3906,33,331.3906,43,335.3906,39,331.3906" style="stroke: #A80036; stroke-width: 1.0;"/><line style="stroke: #A80036; stroke-width: 1.0;" x1="37" x2="198" y1="331.3906" y2="331.3906"/><text fill="#000000" font-family="sans-serif" font-size="13" font-weight="bold" lengthAdjust="spacingAndGlyphs" textLength="9" x="49" y="326.4575">6</text><text fill="#000000" font-family="sans-serif" font-size="13" lengthAdjust="spacingAndGlyphs" textLength="113" x="62" y="326.4575">Display credential</text><polygon fill="#A80036" points="187,356.5234,197,360.5234,187,364.5234,191,360.5234" style="stroke: #A80036; stroke-width: 1.0;"/><line style="stroke: #A80036; stroke-width: 1.0;" x1="32" x2="193" y1="360.5234" y2="360.5234"/><text fill="#000000" font-family="sans-serif" font-size="13" font-weight="bold" lengthAdjust="spacingAndGlyphs" textLength="9" x="39" y="355.5903">7</text><text fill="#000000" font-family="sans-serif" font-size="13" lengthAdjust="spacingAndGlyphs" textLength="99" x="52" y="355.5903">Save credential</text><polygon fill="#A80036" points="386,385.6563,396,389.6563,386,393.6563,390,389.6563" style="stroke: #A80036; stroke-width: 1.0;"/><line style="stroke: #A80036; stroke-width: 1.0;" x1="199" x2="392" y1="389.6563" y2="389.6563"/><text fill="#000000" font-family="sans-serif" font-size="13" font-weight="bold" lengthAdjust="spacingAndGlyphs" textLength="9" x="206" y="384.7231">8</text><text fill="#000000" font-family="sans-serif" font-size="13" lengthAdjust="spacingAndGlyphs" textLength="102" x="219" y="384.7231">Store credential</text><polygon fill="#A80036" points="210,414.7891,200,418.7891,210,422.7891,206,418.7891" style="stroke: #A80036; stroke-width: 1.0;"/><line style="stroke: #A80036; stroke-width: 1.0;" x1="204" x2="397" y1="418.7891" y2="418.7891"/><text fill="#000000" font-family="sans-serif" font-size="13" font-weight="bold" lengthAdjust="spacingAndGlyphs" textLength="9" x="216" y="413.856">9</text><text fill="#000000" font-family="sans-serif" font-size="13" lengthAdjust="spacingAndGlyphs" textLength="162" x="229" y="413.856">Display saved credentials</text></g></svg>